<?xml version="1.0" encoding="utf-8"?>
<!-- Generator: Adobe Illustrator 16.0.0, SVG Export Plug-In . SVG Version: 6.00 Build 0)  -->
<!DOCTYPE svg PUBLIC "-//W3C//DTD SVG 1.1//EN" "http://www.w3.org/Graphics/SVG/1.1/DTD/svg11.dtd">
<svg version="1.1" id="Layer_1" xmlns="http://www.w3.org/2000/svg" xmlns:xlink="http://www.w3.org/1999/xlink" x="0px" y="0px"
	 width="196px" height="112.805px" viewBox="0 0 196 112.805" enable-background="new 0 0 196 112.805" xml:space="preserve">
<path fill="#010101" d="M196,112.805V70.657h-6.131v-5.43l-6.384-7.049l-7.15,7.049v15.309h-5.802V89.2h-5.974v15.207h-7.337V89.444
	l-4.47-1.627c0-9.754-6.378-11.262-8.082-11.484c-0.587-8.221-1.406-17.518-1.559-19.692c0.064,2.381-0.838,12.125-1.249,19.883
	c-9.087,1.479-8.375,11.121-8.375,11.121l-5.146,1.375l0.002,15.387h-9.594V60.042c-13.649-4.147-13.157,0-26.896,5.037
	c-13.625,5.076-21.825-5.037-21.825-5.037v23.465h-7.251V56.188h-5.407v-9.54l-8.508-4.029V25.318h-3.921V0
	c-1.495,6.1-8.777,8.604-8.777,8.604l0.448,4.562c0,0,4.05,1.28,7.535-2.289c0,3.682,0,14.441,0,14.441h-3.62v17.198l-9.042,4.556
	v10.633H25.84v23.41l-5.602,5.666v8.354h-3.544v4.242h-5.369V74.184H0v38.621H196z"/>
</svg>
