<?xml version="1.0" encoding="utf-8"?>
<!-- Generator: Adobe Illustrator 16.0.0, SVG Export Plug-In . SVG Version: 6.00 Build 0)  -->
<!DOCTYPE svg PUBLIC "-//W3C//DTD SVG 1.1//EN" "http://www.w3.org/Graphics/SVG/1.1/DTD/svg11.dtd">
<svg version="1.1" id="Layer_1" xmlns="http://www.w3.org/2000/svg" xmlns:xlink="http://www.w3.org/1999/xlink" x="0px" y="0px"
	 width="79.503px" height="101.576px" viewBox="0 0 79.503 101.576" enable-background="new 0 0 79.503 101.576"
	 xml:space="preserve">
<g>
	<g>
		<path fill="#FFFFFF" d="M4.087,66.021c1.132,0,2.096,0.418,2.893,1.254c0.793,0.834,1.191,1.846,1.191,3.035v4.268
			c0,1.188-0.398,2.197-1.191,3.033c-0.797,0.836-1.761,1.254-2.893,1.254c-1.133,0-2.097-0.418-2.893-1.254S0,75.765,0,74.578
			v-1.537h2.729v1.537c0,0.43,0.131,0.799,0.396,1.1c0.261,0.305,0.583,0.457,0.961,0.457c0.375,0,0.697-0.152,0.959-0.457
			c0.262-0.301,0.396-0.67,0.396-1.1V70.31c0-0.434-0.135-0.801-0.396-1.105c-0.262-0.301-0.584-0.451-0.959-0.451
			c-1.133,0-2.097-0.42-2.893-1.256S0,65.65,0,64.462v-1.537c0-1.188,0.398-2.197,1.194-3.033s1.76-1.254,2.893-1.254
			c1.132,0,2.096,0.418,2.893,1.254c0.793,0.836,1.191,1.846,1.191,3.033v1.537H5.442v-1.537c0-0.43-0.135-0.799-0.396-1.102
			c-0.262-0.305-0.584-0.455-0.959-0.455c-0.378,0-0.7,0.15-0.961,0.455c-0.266,0.303-0.396,0.672-0.396,1.102v1.537
			c0,0.434,0.131,0.799,0.396,1.104C3.387,65.867,3.709,66.021,4.087,66.021z"/>
		<path fill="#FFFFFF" d="M9.766,62.925c0-1.188,0.398-2.197,1.194-3.033s1.76-1.254,2.893-1.254c1.132,0,2.097,0.418,2.893,1.254
			c0.797,0.836,1.193,1.846,1.193,3.033v15.557H15.21V75.75h-2.712v2.732H9.766V62.925z M15.21,73.041v-4.533v-5.582
			c0-0.43-0.134-0.799-0.396-1.102c-0.265-0.305-0.583-0.455-0.962-0.455c-0.378,0-0.697,0.15-0.961,0.455
			c-0.263,0.303-0.394,0.672-0.394,1.102v5.582v4.533H15.21z"/>
		<path fill="#FFFFFF" d="M19.536,62.925c0-1.188,0.398-2.197,1.194-3.033s1.761-1.254,2.894-1.254c1.132,0,2.096,0.418,2.893,1.254
			c0.793,0.836,1.191,1.846,1.191,3.033v11.652c0,1.188-0.398,2.197-1.191,3.033c-0.797,0.836-1.761,1.254-2.893,1.254
			c-1.133,0-2.098-0.418-2.894-1.254s-1.194-1.846-1.194-3.033V62.925z M22.267,62.925v11.652c0,0.43,0.133,0.799,0.395,1.1
			c0.265,0.305,0.584,0.457,0.963,0.457c0.375,0,0.696-0.152,0.959-0.457c0.264-0.301,0.395-0.67,0.395-1.1V62.925
			c0-0.43-0.131-0.799-0.395-1.102c-0.263-0.305-0.584-0.455-0.959-0.455c-0.379,0-0.698,0.15-0.963,0.455
			C22.399,62.126,22.267,62.496,22.267,62.925z"/>
		<path fill="#FFFFFF" d="M37.738,59.021c1.09,0.041,2.02,0.475,2.788,1.307c0.77,0.826,1.155,1.824,1.155,2.982v8.172
			c0,1.172-0.398,2.178-1.194,3.014c-0.797,0.836-1.761,1.254-2.893,1.254h-1.355v2.732h-2.731v-7V63.31v-4.289h4.087H37.738z
			 M36.239,61.753v11.287h1.355c0.378,0,0.699-0.156,0.961-0.465c0.263-0.312,0.393-0.676,0.393-1.094V63.31
			c0-0.432-0.13-0.801-0.393-1.102c-0.262-0.305-0.583-0.455-0.961-0.455H36.239z"/>
		<path fill="#FFFFFF" d="M43.298,62.925c0-1.188,0.398-2.197,1.193-3.033c0.797-0.836,1.762-1.254,2.895-1.254
			c1.131,0,2.096,0.418,2.893,1.254c0.793,0.836,1.191,1.846,1.191,3.033v15.557h-2.73V75.75h-2.709v2.732h-2.732V62.925z
			 M48.74,73.041v-4.533v-5.582c0-0.43-0.131-0.799-0.395-1.102c-0.264-0.305-0.584-0.455-0.959-0.455
			c-0.379,0-0.699,0.15-0.963,0.455c-0.262,0.303-0.393,0.672-0.393,1.102v5.582v4.533H48.74z"/>
		<path fill="#FFFFFF" d="M53.07,59.021h2.729v15.557c0,0.43,0.133,0.799,0.396,1.1c0.262,0.305,0.584,0.457,0.959,0.457
			c0.377,0,0.699-0.152,0.961-0.457c0.264-0.301,0.393-0.67,0.393-1.1V59.021h2.734v15.557c0,1.188-0.4,2.197-1.193,3.033
			c-0.795,0.836-1.76,1.254-2.895,1.254c-1.129,0-2.094-0.418-2.893-1.254c-0.793-0.836-1.191-1.846-1.191-3.033V59.021z"/>
		<path fill="#FFFFFF" d="M63.07,59.021h2.732V75.75h4.086v2.732H63.07V59.021z"/>
		<path fill="#FFFFFF" d="M71.332,62.925c0-1.188,0.396-2.197,1.193-3.033c0.795-0.836,1.76-1.254,2.893-1.254
			c1.131,0,2.096,0.418,2.893,1.254c0.795,0.836,1.193,1.846,1.193,3.033v11.652c0,1.188-0.398,2.197-1.193,3.033
			c-0.797,0.836-1.762,1.254-2.893,1.254c-1.133,0-2.098-0.418-2.893-1.254c-0.797-0.836-1.193-1.846-1.193-3.033V62.925z
			 M74.064,62.925v11.652c0,0.43,0.131,0.799,0.395,1.1c0.262,0.305,0.58,0.457,0.959,0.457c0.377,0,0.699-0.152,0.961-0.457
			c0.264-0.301,0.393-0.67,0.393-1.1V62.925c0-0.43-0.129-0.799-0.393-1.102c-0.262-0.305-0.584-0.455-0.961-0.455
			c-0.379,0-0.697,0.15-0.959,0.455C74.195,62.126,74.064,62.496,74.064,62.925z"/>
		<g>
			<g>
				<path fill="#FFFFFF" d="M15.976,54.646v2.73h-4.247v-2.73H15.976z"/>
			</g>
		</g>
	</g>
	<g>
		<path fill="#FFFFFF" d="M11.479,86.019c0-1.186,0.397-2.197,1.193-3.035c0.794-0.834,1.758-1.254,2.891-1.254
			c1.135,0,2.1,0.42,2.895,1.254c0.794,0.838,1.192,1.85,1.192,3.035v15.557h-2.729v-2.73h-2.713v2.73h-2.729V86.019z
			 M16.921,96.134v-4.533v-5.582c0-0.432-0.134-0.799-0.396-1.104c-0.261-0.303-0.583-0.453-0.961-0.453
			c-0.375,0-0.697,0.15-0.959,0.453c-0.262,0.305-0.396,0.672-0.396,1.104v5.582v4.533H16.921z"/>
		<path fill="#FFFFFF" d="M21.855,82.115h4.085h0.123c0.039,0,0.079,0.008,0.121,0.02c1.065,0.055,1.973,0.479,2.72,1.264
			c0.749,0.793,1.122,1.725,1.122,2.805c0,1.064-0.355,1.98-1.07,2.75c0.715,0.822,1.07,1.787,1.07,2.891v5.443
			c0,1.186-0.395,2.197-1.193,3.035c-0.794,0.836-1.759,1.254-2.893,1.254h-0.08h-4.005V82.115z M24.587,84.845v2.709h1.354
			c0.068,0,0.136,0,0.202,0c0.324-0.051,0.599-0.207,0.821-0.461c0.222-0.258,0.334-0.555,0.334-0.891
			c0-0.379-0.132-0.699-0.396-0.963c-0.262-0.262-0.584-0.395-0.961-0.395H24.587z M24.587,90.287v8.559h1.354
			c0.377,0,0.699-0.152,0.961-0.457c0.265-0.303,0.396-0.672,0.396-1.102v-5.443c0-0.43-0.132-0.799-0.396-1.102
			c-0.262-0.303-0.584-0.455-0.961-0.455H24.587z"/>
		<path fill="#FFFFFF" d="M39.808,98.845v2.73H35.72h-2.729v-2.73v-14v-2.73h2.729h2.732v2.73H35.72v2.709h4.088v2.732H35.72v8.559
			H39.808z"/>
		<path fill="#FFFFFF" d="M45.642,82.037c1.092,0.041,2.021,0.477,2.793,1.305c0.768,0.83,1.15,1.826,1.15,2.984V94.5
			c0,1.211-0.422,2.242-1.273,3.092l1.273,3.904h-2.871l-0.869-2.748c-0.109,0.01-0.215,0.02-0.324,0.02h-1.375v2.729h-2.73v-15.17
			v-4.289h4.086H45.642z M44.146,84.769v11.285h1.355c0.375,0,0.697-0.152,0.961-0.465c0.262-0.311,0.395-0.672,0.395-1.09v-8.174
			c0-0.432-0.133-0.799-0.395-1.102c-0.264-0.305-0.586-0.455-0.961-0.455H44.146z"/>
		<path fill="#FFFFFF" d="M58.234,82.115v2.73h-2.041v16.73H53.46v-16.73h-2.043v-2.73H58.234z"/>
		<path fill="#FFFFFF" d="M59.853,86.019c0-1.186,0.396-2.197,1.195-3.035c0.793-0.834,1.758-1.254,2.889-1.254
			c1.137,0,2.098,0.42,2.895,1.254c0.795,0.838,1.193,1.85,1.193,3.035v15.557h-2.73v-2.73h-2.711v2.73h-2.73V86.019z
			 M65.294,96.134v-4.533v-5.582c0-0.432-0.131-0.799-0.395-1.104c-0.262-0.303-0.584-0.453-0.963-0.453
			c-0.375,0-0.695,0.15-0.957,0.453c-0.266,0.305-0.396,0.672-0.396,1.104v5.582v4.533H65.294z"/>
	</g>
	<g>
		<g>
			<path fill="#FFFFFF" d="M54.765,19.22c0.004,0.007,0.004,0.027,0.004,0.049C54.769,19.236,54.765,19.22,54.765,19.22z"/>
			<g>
				<path fill="#FFFFFF" d="M71.833,24.701c-1.48,7.632-5.725,14.544-11.926,19.269c-2.084,1.585-3.645,2.608-6.389,3.777
					c-3.043,1.298-6.678,2.28-9.256,2.503c-1.418,0.133-2.59,0.197-3.583,0.197c-2.517,0-5.028-0.294-7.472-0.883l-1.045,3.031
					c2.789,0.695,5.659,1.047,8.531,1.047v0.18v-0.18c7.708,0,15.018-2.465,21.147-7.133c6.994-5.325,11.719-13.17,13.232-21.808
					H71.833z"/>
			</g>
			<g>
				<g>
					<g>
						<path fill="#FFFFFF" d="M54.064,41.56l1.164,3.196c1.428-0.722,2.805-1.569,4.088-2.526c3.84-2.855,6.887-6.668,8.814-11.032
							l-3.197-1.12c-1.699,3.731-4.334,6.992-7.629,9.445C56.287,40.281,55.197,40.963,54.064,41.56z"/>
					</g>
				</g>
			</g>
			<g>
				<path fill="#FFFFFF" d="M62.81,24.009v-7.867h-1.424V14.9l-1.475-1.612L58.269,14.9v3.498h-1.34v1.98h-1.367v3.63h-1.707v-3.575
					l-1.023-0.371c0-2.232-1.471-2.573-1.852-2.626c-0.131-1.881-0.326-4.003-0.361-4.497c0.018,0.541-0.191,2.769-0.299,4.539
					c-2.094,0.339-1.924,2.539-1.924,2.539l-1.184,0.321l0.004,3.67h-2.209V13.711c-3.15-0.942-3.047,0-6.197,1.156
					c-3.147,1.155-5.041-1.156-5.041-1.156v5.365h-1.671v-6.241h-1.244v-2.183l-1.968-0.92v-3.95h-0.899V0
					c-0.347,1.389-2.025,1.968-2.025,1.968l0.119,1.038c0,0,0.922,0.291,1.732-0.52c0,0.838,0,3.296,0,3.296h-0.832v3.931
					l-2.082,1.039v2.43h-1.303v5.346l-1.299,1.298v1.911h-0.811v0.969h-1.232v-5.761H17.63v7.064h-3.434
					c0.378,1.453,0.88,2.859,1.486,4.207H15.68c0.011,0.025,0.022,0.045,0.032,0.069c1.385,3.041,3.322,5.775,5.688,8.078
					l2.308-2.648c4.257,4.178,9.97,6.557,16.144,6.628c0.354,0.002,0.71,0,1.068-0.015l0.414,3.565
					c0.195-0.011,0.391-0.019,0.586-0.032c0.115-0.008,0.232-0.02,0.352-0.029c0.191-0.016,0.385-0.035,0.578-0.053
					c0.096-0.012,0.193-0.021,0.293-0.032c0.256-0.032,0.51-0.066,0.764-0.104c0.072-0.01,0.139-0.02,0.209-0.032
					c7.363-1.137,13.742-5.293,17.814-11.175c0.936-1.301,1.764-2.681,2.475-4.121c0,0,1.051-2.426,1.404-4.307H62.81z"/>
			</g>
			<g>
				<path fill="#FFFFFF" d="M15.329,43.334l1.982-2.519c-1.156-1.12-2.232-2.332-3.205-3.607c-0.909-1.194-1.742-2.467-2.479-3.787
					c-0.016-0.018-2.303-3.373-3.475-9.636C7.103,18.158,7.444,13.191,9.269,7.842L6.271,6.759
					c-0.703,2.091-1.217,4.268-1.519,6.505c-1.257,9.269,1.165,18.459,6.816,25.881C12.702,40.633,13.966,42.044,15.329,43.334z"/>
			</g>
			<path fill="#FFFFFF" d="M13.039,13.961c0.29-2.67,1.006-5.286,2.151-7.729c0.539-1.149,1.174-2.267,1.894-3.325l-2.539-2.269
				c-0.923,1.314-1.731,2.712-2.408,4.16c-1.293,2.76-2.114,5.707-2.45,8.708L13.039,13.961z"/>
		</g>
	</g>
</g>
</svg>
